<svg id="mod-svg" width="350" height="243">
<g id="mod-svg-bars">
<rect x="0" y="0" width="14" height="46.04210526315789" style="fill: grey;"></rect><rect x="0" y="58.19210526315789" width="14" height="115.10526315789474" style="fill: grey;"></rect><rect x="0" y="185.44736842105263" width="14" height="57.55263157894737" style="fill: grey;"></rect><rect x="154" y="0" width="14" height="34.531578947368416" style="fill: grey;"></rect><rect x="154" y="46.681578947368415" width="14" height="115.10526315789474" style="fill: grey;"></rect><rect x="154" y="173.93684210526314" width="14" height="69.06315789473683" style="fill: grey;"></rect><rect x="308" y="0" width="14" height="80.57368421052631" style="fill: grey;"></rect><rect x="308" y="92.72368421052632" width="14" height="92.08421052631579" style="fill: grey;"></rect><rect x="308" y="196.9578947368421" width="14" height="46.04210526315789" style="fill: grey;"></rect></g><g id="mod-svg-rows"><path d="M 14 58.19210526315789 C 52.5 58.19210526315789 115.5 92.7236842105263 154 92.7236842105263 L 154 161.78684210526313 C 115.5 161.78684210526313 52.5 127.25526315789472 14 127.25526315789472 Z" style="fill:#FA7864;" row="1" rowvalue="3" rowlabel="[object Object],[object Object],[object Object]"></path><path d="M 168 92.7236842105263 C 206.5 92.7236842105263 269.5 92.72368421052632 308 92.72368421052632 L 308 161.78684210526313 C 269.5 161.78684210526313 206.5 161.78684210526313 168 161.78684210526313 Z" style="fill:#FA7864;" row="1" rowvalue="3" rowlabel="[object Object],[object Object],[object Object]"></path><path d="M 14 0 C 52.5 0 115.5 46.681578947368415 154 46.681578947368415 L 154 92.7236842105263 C 115.5 92.7236842105263 52.5 46.04210526315789 14 46.04210526315789 Z" style="fill:#6489FA;" row="0" rowvalue="2" rowlabel="[object Object],[object Object],[object Object]"></path><path d="M 168 46.681578947368415 C 206.5 46.681578947368415 269.5 0 308 0 L 308 46.04210526315789 C 269.5 46.04210526315789 206.5 92.7236842105263 168 92.7236842105263 Z" style="fill:#6489FA;" row="0" rowvalue="2" rowlabel="[object Object],[object Object],[object Object]"></path><path d="M 14 127.25526315789472 C 52.5 127.25526315789472 115.5 173.93684210526314 154 173.93684210526314 L 154 219.97894736842102 C 115.5 219.97894736842102 52.5 173.29736842105262 14 173.29736842105262 Z" style="fill:#FA7864;" row="2" rowvalue="2" rowlabel="[object Object],[object Object],[object Object]"></path><path d="M 168 173.93684210526314 C 206.5 173.93684210526314 269.5 196.9578947368421 308 196.9578947368421 L 308 243 C 269.5 243 206.5 219.97894736842102 168 219.97894736842102 Z" style="fill:#FA7864;" row="2" rowvalue="2" rowlabel="[object Object],[object Object],[object Object]"></path><path d="M 14 185.44736842105263 C 52.5 185.44736842105263 115.5 0 154 0 L 154 34.531578947368416 C 115.5 34.531578947368416 52.5 219.97894736842105 14 219.97894736842105 Z" style="fill:#FFDE5C;" row="3" rowvalue="1.5" rowlabel="[object Object],[object Object],[object Object]"></path><path d="M 168 0 C 206.5 0 269.5 46.04210526315789 308 46.04210526315789 L 308 80.57368421052631 C 269.5 80.57368421052631 206.5 34.531578947368416 168 34.531578947368416 Z" style="fill:#FFDE5C;" row="3" rowvalue="1.5" rowlabel="[object Object],[object Object],[object Object]"></path><path d="M 14 219.97894736842105 C 52.5 219.97894736842105 115.5 219.97894736842102 154 219.97894736842102 L 154 242.99999999999997 C 115.5 242.99999999999997 52.5 243 14 243 Z" style="fill:#FFDE5C;" row="4" rowvalue="1" rowlabel="[object Object],[object Object],[object Object]"></path><path d="M 168 219.97894736842102 C 206.5 219.97894736842102 269.5 161.78684210526313 308 161.78684210526313 L 308 184.8078947368421 C 269.5 184.8078947368421 206.5 242.99999999999997 168 242.99999999999997 Z" style="fill:#FFDE5C;" row="4" rowvalue="1" rowlabel="[object Object],[object Object],[object Object]"></path></g><g id="mod-svg-labels"></g></svg>