<?xml version="1.0" encoding="UTF-8" standalone="no"?>
<!DOCTYPE svg PUBLIC "-//W3C//DTD SVG 1.1//EN" "http://www.w3.org/Graphics/SVG/1.1/DTD/svg11.dtd">
<svg width="100%" height="100%" viewBox="0 0 24 24" version="1.1" xmlns="http://www.w3.org/2000/svg" xmlns:xlink="http://www.w3.org/1999/xlink" xml:space="preserve" xmlns:serif="http://www.serif.com/" style="fill-rule:evenodd;clip-rule:evenodd;stroke-linejoin:round;stroke-miterlimit:2;">
    <g id="mod-svg-bars" transform="matrix(0.0685714,0,0,0.0987654,0,0)">
        <g transform="matrix(1.08696,0,0,0.333745,0,161.9)">
            <rect x="154" y="173.937" width="14" height="69.063" style="fill:rgb(250,162,100);"/>
        </g>
        <g transform="matrix(1.45833,0,0,1.0125,0,0)">
            <path d="M114.783,91.579C86.087,91.579 39.13,45.474 10.435,45.474L0,45.474L0,0L10.519,0C39.224,0.092 86.116,46.105 114.783,46.105L125.217,46.105L125.302,46.105C154.007,46.013 200.898,0 229.565,0L240,0L240,45.474L229.565,45.474C200.87,45.474 153.913,91.579 125.217,91.579L114.783,91.579Z" style="fill:rgb(250,120,100);"/>
        </g>
        <g transform="matrix(1.45833,0,0,1.0125,0,0)">
            <path d="M229.397,240C200.682,239.909 153.856,217.263 125.217,217.263L125.217,217.235L114.783,217.235L114.783,217.263C86.087,217.263 39.13,171.158 10.435,171.158L0,171.158L0,57.474L10.435,57.474C39.13,57.474 86.087,91.579 114.783,91.579L240,91.579L240,159.789L114.783,159.789C86.087,159.789 39.13,125.684 10.435,125.684C39.13,125.684 86.087,171.789 114.783,171.789L114.783,171.761L125.217,171.761L125.217,171.789C153.913,171.789 200.87,194.526 229.565,194.526L240,194.526L240,240L229.565,240L229.397,240Z" style="fill:rgb(100,137,250);"/>
        </g>
        <g transform="matrix(1.45833,0,0,1.0125,0,0)">
            <path d="M229.565,182.526C200.87,182.526 153.913,240 125.217,240L125.217,217.263C153.913,217.263 200.87,159.789 229.565,159.789L240,159.789L240,182.526L229.565,182.526ZM229.565,79.579C200.87,79.579 153.913,34.105 125.217,34.105L114.783,34.105L114.741,34.105C86.04,34.288 39.116,217.263 10.435,217.263L114.783,217.263L114.783,240L0,240L0,183.158L10.435,183.158L10.477,183.158C39.177,182.975 86.101,0 114.783,0L125.217,0L125.302,0C154.007,0.091 200.898,45.474 229.565,45.474L240,45.474L240,79.579L229.565,79.579Z" style="fill:rgb(250,162,100);"/>
        </g>
    </g>
    <g id="mod-svg-rows">
    </g>
</svg>
